<?xml version="1.0" standalone="no"?>
<!DOCTYPE svg PUBLIC "-//W3C//DTD SVG 20010904//EN"
 "http://www.w3.org/TR/2001/REC-SVG-20010904/DTD/svg10.dtd">
<svg version="1.0" xmlns="http://www.w3.org/2000/svg"
 width="485.000000pt" height="485.000000pt" viewBox="0 0 485.000000 485.000000"
 preserveAspectRatio="xMidYMid meet">
<metadata>
Created by potrace 1.14, written by Peter Selinger 2001-2017
</metadata>
<g transform="translate(0.000000,485.000000) scale(0.100000,-0.100000)"
fill="#000000" stroke="none">
<path d="M827 2638 c-23 -18 -47 -96 -40 -131 5 -23 3 -28 -7 -22 -8 5 -11 4
-7 -2 4 -6 -2 -48 -13 -94 -32 -140 -47 -228 -38 -231 5 -2 10 -13 11 -25 0
-12 5 -19 9 -17 4 3 8 0 8 -7 0 -7 3 -9 7 -6 3 4 12 -1 20 -11 8 -9 11 -11 8
-4 -6 11 -3 12 14 3 12 -7 26 -9 32 -6 5 4 17 1 26 -7 11 -8 14 -9 10 -1 -5 8
3 18 20 26 23 12 30 12 40 2 6 -7 9 -15 6 -19 -7 -7 34 1 47 9 6 3 10 1 10 -6
0 -8 5 -7 17 2 15 12 16 12 10 -4 -6 -16 -5 -16 20 0 22 14 26 15 19 3 -4 -8
-1 -7 7 3 8 9 19 17 24 17 6 0 14 16 17 35 4 20 11 33 17 29 6 -3 8 -8 5 -11
-11 -11 28 -62 51 -68 15 -3 21 -10 17 -18 -4 -7 -4 -9 1 -5 4 4 15 2 24 -5
14 -11 15 -10 1 7 -13 17 -13 19 0 14 8 -3 25 -1 38 3 13 5 21 5 18 1 -3 -5 1
-9 8 -9 9 0 12 7 8 15 -4 11 -1 14 11 9 9 -3 16 -3 14 1 -1 4 3 7 8 7 6 0 9
-4 7 -9 -2 -5 3 -4 12 3 10 8 16 9 21 1 3 -5 15 -10 25 -10 10 0 22 -10 25
-21 6 -17 9 -18 15 -8 5 7 28 14 51 15 22 1 45 8 50 15 5 8 9 10 9 5 0 -5 7
-3 15 4 8 7 15 9 15 4 0 -5 7 2 16 14 8 12 19 20 23 18 4 -3 14 14 23 38 14
37 14 47 2 82 -8 21 -16 42 -17 45 -1 4 2 7 7 7 5 0 13 7 18 16 5 9 13 14 19
11 8 -6 14 34 9 60 -1 7 2 7 8 0 10 -11 4 -97 -7 -91 -3 2 -7 -21 -8 -52 -2
-31 -7 -60 -12 -65 -6 -6 -6 -16 -1 -26 13 -25 23 -55 21 -64 -1 -4 4 -7 11
-5 7 1 23 -4 36 -11 29 -15 64 -23 57 -12 -8 14 26 22 41 10 12 -10 13 -9 8 5
-6 14 5 21 28 17 4 0 4 7 1 16 -4 11 -3 14 5 9 7 -4 6 6 -3 28 -16 38 -19 78
-8 90 8 8 9 13 11 64 1 18 6 31 11 28 4 -3 6 6 3 19 -3 18 0 25 12 25 19 0 19
5 0 -59 -17 -60 -16 -159 4 -179 6 -8 9 -18 6 -24 -5 -7 -2 -8 6 -3 10 6 12 4
7 -8 -4 -11 -2 -14 8 -11 8 3 28 -1 45 -10 17 -8 38 -12 46 -9 10 4 13 0 8
-13 -5 -18 -5 -18 10 0 9 11 16 16 16 12 0 -5 10 -2 23 6 23 14 67 13 67 -2 0
-4 7 -11 16 -14 9 -4 13 -2 8 5 -4 7 0 9 12 5 11 -3 37 3 59 14 22 11 36 20
30 20 -5 0 -4 4 4 9 12 8 13 14 3 36 -13 28 -16 78 -5 89 4 3 7 14 8 24 1 9 7
53 15 97 12 75 11 82 -7 117 -11 21 -22 35 -25 33 -5 -5 -111 -8 -143 -3 -43
6 -106 -13 -139 -42 -38 -34 -43 -31 -70 33 -17 42 -38 67 -56 67 -7 0 -24 -9
-40 -20 -15 -11 -48 -29 -74 -40 -30 -12 -46 -26 -46 -37 0 -10 -4 -24 -9 -32
-7 -11 -13 -7 -25 17 -21 42 -49 55 -112 54 -54 0 -97 -17 -126 -48 -24 -27
-55 -116 -53 -150 1 -16 -4 -40 -10 -54 -7 -14 -18 -36 -24 -50 -11 -23 -11
-22 -6 10 4 19 9 46 12 60 3 14 6 48 6 77 1 58 -35 139 -67 149 -30 10 -85 7
-118 -7 -26 -11 -32 -10 -40 5 -5 9 -13 14 -18 11 -4 -3 -26 -6 -47 -7 l-40
-1 -18 -69 c-11 -37 -22 -68 -25 -68 -3 0 -6 -23 -7 -51 -1 -29 -5 -59 -9 -68
-9 -20 -11 -29 -12 -64 -1 -16 -6 -26 -10 -23 -12 7 -13 74 -2 81 5 3 6 13 3
22 -4 9 -2 14 3 11 8 -6 14 46 18 152 0 25 6 50 12 55 6 6 14 17 17 26 7 22
-36 114 -58 122 -27 11 -70 8 -88 -5z m1261 -313 c-5 -33 -11 -66 -12 -73 -1
-7 -7 -17 -12 -22 -12 -12 -16 14 -7 40 3 8 7 29 9 47 3 31 22 78 29 71 2 -1
-1 -30 -7 -63z m-947 -50 c-9 -47 -19 -85 -22 -85 -6 0 15 123 26 158 12 34
10 3 -4 -73z"/>
<path d="M2435 2642 c-63 -5 -71 -11 -83 -50 -15 -50 -72 -338 -72 -364 0 -12
-4 -16 -12 -12 -7 4 -8 3 -4 -5 4 -6 9 -26 12 -44 2 -18 11 -37 20 -44 17 -13
10 -38 -8 -27 -7 5 -8 2 -3 -5 5 -9 10 -10 18 -2 17 17 40 13 33 -5 -5 -13 -3
-14 6 -7 7 6 21 9 30 8 10 -2 20 1 23 5 3 5 12 7 20 3 8 -3 15 0 15 6 0 6 5
11 11 11 6 0 19 10 30 23 15 18 18 19 19 5 0 -9 14 -22 30 -30 17 -7 30 -15
30 -18 0 -3 20 -6 44 -6 25 1 44 3 43 6 -1 3 2 6 6 7 26 7 52 59 35 69 -7 4
-8 28 -4 68 7 70 37 218 45 226 4 3 7 32 9 65 3 70 -25 130 -56 121 -9 -3 -34
-6 -55 -8 -34 -2 -40 -7 -53 -38 -9 -19 -20 -60 -26 -90 -6 -30 -11 -59 -12
-65 -2 -5 -6 -31 -11 -57 -4 -27 -10 -48 -14 -48 -3 0 -7 -26 -9 -57 -1 -31
-6 -61 -11 -67 -5 -6 -7 -22 -5 -36 3 -19 2 -22 -6 -10 -10 15 -6 102 6 122 4
5 8 27 10 47 2 20 6 47 9 61 3 14 12 61 19 105 14 74 13 81 -4 106 -11 14 -18
28 -15 30 4 5 -15 5 -60 1z"/>
<path d="M2865 2518 c-52 -11 -111 -53 -127 -89 -7 -16 -17 -29 -21 -29 -5 0
-6 -4 -2 -10 3 -5 -1 -25 -9 -44 -13 -31 -19 -85 -17 -142 1 -12 12 -37 25
-57 13 -19 21 -39 18 -43 -4 -5 1 -2 11 5 11 9 17 10 17 2 0 -6 7 -11 16 -11
9 0 12 -5 8 -12 -5 -9 -2 -9 9 1 13 11 17 11 17 1 0 -8 3 -11 6 -7 3 3 17 2
31 -4 17 -6 22 -6 17 2 -4 7 -1 10 7 7 8 -3 28 0 44 7 17 6 36 10 44 7 8 -3
11 0 7 7 -4 6 -2 11 4 11 38 0 58 65 35 114 -18 37 -13 61 12 52 8 -3 12 -2 9
3 -3 5 1 15 10 22 13 11 15 9 10 -17 -2 -16 -5 -31 -6 -34 -1 -3 -2 -13 -1
-22 1 -10 -3 -18 -9 -18 -6 0 -8 -4 -5 -10 9 -15 -6 -79 -23 -96 -12 -12 -12
-15 -1 -13 21 5 61 -20 53 -33 -4 -7 -3 -8 5 -4 6 4 8 12 5 18 -5 7 -2 9 8 5
9 -3 19 -3 22 1 12 11 36 10 36 -1 0 -8 3 -7 9 1 4 8 11 13 15 13 37 -5 48 10
59 79 16 103 18 108 39 102 15 -4 17 -7 6 -14 -9 -7 -7 -8 7 -3 11 4 30 9 41
11 28 5 86 29 84 35 -1 2 3 17 9 32 15 39 14 45 -13 102 -36 77 -70 95 -135
68 -30 -12 -36 -12 -43 0 -6 11 -17 12 -50 6 -24 -4 -46 -8 -50 -9 -3 0 -14
-26 -23 -57 -10 -32 -19 -62 -20 -68 -2 -5 -4 -2 -4 8 -1 29 -40 96 -64 111
-29 19 -83 25 -132 14z"/>
<path d="M3342 2270 c1 -17 -4 -21 -15 -11 -10 8 -14 7 -14 -4 0 -8 4 -12 9
-9 12 7 2 -44 -12 -60 -11 -14 -8 -83 4 -78 3 1 19 -4 34 -11 35 -17 64 -16
87 3 11 8 16 10 11 3 -5 -9 -2 -11 8 -7 9 3 13 10 10 15 -8 14 2 11 41 -11 19
-11 35 -17 35 -13 0 4 5 2 11 -4 12 -12 45 0 61 22 5 7 8 7 8 0 0 -5 4 -4 9 4
8 12 12 12 26 -2 9 -10 21 -15 26 -12 5 4 9 1 9 -5 0 -7 7 -9 16 -6 9 4 13 2
8 -5 -3 -6 5 -3 19 6 14 9 33 18 42 19 9 1 21 9 26 17 5 8 9 9 9 3 0 -6 12
-16 26 -22 14 -7 23 -16 19 -21 -3 -5 0 -13 6 -17 8 -4 9 -3 5 4 -7 11 6 17
28 13 4 -1 14 3 21 9 10 8 14 7 18 -2 4 -9 6 -8 6 3 1 22 31 33 45 18 8 -9 7
-10 -3 -4 -9 5 -12 4 -7 -3 4 -6 13 -9 21 -5 8 3 15 -1 15 -8 0 -7 3 -9 7 -6
3 4 17 0 29 -8 17 -11 25 -12 30 -3 4 6 3 8 -4 4 -6 -3 -14 -1 -18 5 -5 8 1
10 20 7 15 -3 24 -3 22 0 -3 2 6 13 19 24 31 24 31 45 3 102 -24 51 -57 68
-99 54 -24 -8 -43 -38 -40 -60 3 -20 -20 -5 -34 22 -33 64 -110 58 -128 -9
l-8 -34 -24 39 c-26 43 -55 55 -97 42 -18 -7 -29 -19 -33 -39 -8 -37 -16 -37
-39 2 -21 35 -50 49 -85 40 -25 -7 -31 -15 -48 -60 -9 -24 -9 -24 -26 12 -10
20 -23 39 -29 43 -13 8 -87 12 -86 4z"/>
<path d="M896 2088 c3 -5 10 -6 15 -3 13 9 11 12 -6 12 -8 0 -12 -4 -9 -9z"/>
<path d="M2439 2083 c-13 -17 -13 -17 6 -3 11 8 22 16 24 17 2 2 0 3 -6 3 -6
0 -17 -8 -24 -17z"/>
<path d="M2395 2070 c-3 -5 -1 -10 4 -10 6 0 11 5 11 10 0 6 -2 10 -4 10 -3 0
-8 -4 -11 -10z"/>
</g>
</svg>
